<?xml version="1.0" standalone="no"?>
<!DOCTYPE svg PUBLIC "-//W3C//DTD SVG 20010904//EN"
 "http://www.w3.org/TR/2001/REC-SVG-20010904/DTD/svg10.dtd">
<svg version="1.0" xmlns="http://www.w3.org/2000/svg"
 width="512.000000pt" height="512.000000pt" viewBox="0 0 512.000000 512.000000"
 preserveAspectRatio="xMidYMid meet">

<g transform="translate(0.000000,512.000000) scale(0.100000,-0.100000)"
fill="#000000" stroke="none">
<path d="M1585 5109 c-154 -22 -355 -101 -486 -190 -77 -52 -207 -175 -264
-249 -96 -126 -162 -263 -207 -430 -17 -62 -22 -119 -27 -335 -6 -259 -6 -260
-33 -306 -32 -55 -44 -63 -169 -118 -119 -52 -178 -105 -222 -198 -47 -102
-44 -174 18 -378 51 -169 58 -231 32 -281 -8 -16 -47 -69 -86 -118 -93 -116
-107 -141 -127 -216 -30 -118 1 -236 90 -339 89 -102 95 -173 24 -282 -62 -97
-73 -132 -73 -234 1 -93 17 -144 54 -172 28 -22 76 -15 106 14 25 25 26 32 19
73 -5 25 -8 71 -8 102 0 49 5 65 37 110 64 93 81 143 81 233 -1 103 -26 169
-99 255 -108 126 -101 188 38 362 88 110 112 154 126 234 14 73 8 108 -54 320
-34 118 -44 166 -39 193 16 86 56 126 186 182 125 53 176 98 225 196 l37 75 7
267 c7 284 11 308 69 458 100 259 341 481 616 567 136 42 222 48 606 44 389
-5 414 -8 581 -78 224 -93 432 -304 523 -529 57 -142 66 -198 73 -476 6 -252
7 -262 33 -316 48 -105 112 -159 258 -219 84 -34 113 -58 141 -112 28 -56 24
-105 -27 -277 -58 -197 -63 -247 -35 -340 18 -58 37 -91 111 -185 101 -130
110 -147 110 -217 0 -58 -17 -95 -71 -154 -21 -23 -51 -68 -66 -101 -24 -50
-28 -72 -28 -146 l0 -87 -360 -3 c-396 -3 -394 -3 -469 -68 -20 -18 -47 -52
-59 -74 -22 -41 -22 -43 -25 -719 l-3 -677 -58 0 c-50 0 -62 -4 -85 -26 -40
-41 -30 -110 21 -133 17 -8 367 -11 1229 -11 l1206 0 29 29 c38 38 38 74 0
112 l-29 29 -1071 0 -1071 0 0 654 0 655 24 28 24 28 854 3 c594 2 864 0 890
-8 69 -20 68 -12 68 -535 l0 -466 25 -24 c45 -46 125 -24 140 38 3 12 5 236 3
497 l-3 475 -27 50 c-31 59 -57 84 -118 116 l-45 24 -453 3 -453 3 -9 25 c-26
68 -3 136 77 233 57 70 83 143 83 236 0 106 -24 159 -130 295 -84 107 -110
155 -110 205 0 11 23 99 51 195 46 159 50 182 47 255 -8 158 -89 259 -267 335
-111 46 -152 83 -170 147 -6 21 -11 126 -11 234 0 222 -15 334 -62 469 -142
406 -487 696 -908 765 -74 11 -173 15 -445 14 -192 -1 -377 -5 -410 -10z"/>
<path d="M2467 4043 c-9 -2 -48 -46 -86 -98 -233 -314 -517 -504 -896 -602
-91 -24 -121 -26 -334 -29 -222 -3 -236 -4 -255 -24 -20 -20 -21 -31 -21 -288
0 -332 19 -437 110 -627 63 -131 194 -304 246 -326 57 -23 128 36 113 95 -3
14 -32 55 -63 91 -104 120 -183 276 -216 425 -10 48 -18 146 -22 276 l-6 201
164 6 c158 6 290 26 407 60 49 15 53 15 94 -7 96 -51 116 -178 40 -260 -74
-79 -179 -73 -260 14 -33 35 -45 42 -77 42 -47 0 -85 -37 -85 -81 0 -63 105
-157 209 -188 157 -45 340 42 402 193 l23 54 101 0 c94 0 103 2 124 24 13 14
25 42 28 68 8 59 26 92 70 125 31 24 46 28 99 28 70 0 102 -17 141 -75 71
-103 5 -238 -127 -259 -95 -15 -129 -84 -69 -143 28 -29 34 -30 88 -25 171 15
304 161 305 332 1 105 -24 166 -98 241 -81 81 -147 108 -257 102 -132 -8 -251
-90 -295 -203 -17 -45 -17 -45 -65 -45 -47 0 -48 1 -68 45 -11 24 -31 60 -46
79 l-26 34 88 47 c169 89 378 257 483 388 25 31 48 56 51 57 3 0 22 -24 42
-53 79 -115 241 -248 374 -309 l64 -29 -3 -352 c-4 -329 -6 -357 -27 -432
-109 -385 -428 -658 -825 -705 -121 -14 -258 -1 -380 36 -105 33 -131 38 -161
30 -31 -8 -55 -53 -55 -103 -1 -148 -110 -322 -248 -396 -30 -16 -175 -71
-323 -122 -148 -52 -297 -109 -332 -127 -83 -44 -194 -155 -243 -243 -21 -38
-49 -105 -61 -149 -22 -75 -23 -93 -23 -433 l0 -354 25 -24 c31 -32 75 -32
112 -1 l28 24 5 364 c5 346 6 365 28 415 45 107 119 196 207 247 33 20 542
206 562 206 1 0 17 -21 34 -47 124 -181 303 -308 514 -364 112 -30 308 -30
417 -1 95 26 217 81 246 112 28 30 29 79 2 108 -35 38 -64 38 -148 -1 -43 -19
-107 -43 -142 -52 -86 -23 -244 -24 -330 -2 -86 23 -213 86 -277 139 -51 43
-153 161 -153 178 0 5 33 42 73 82 84 85 137 171 169 275 20 65 25 73 43 68
161 -46 387 -53 545 -17 52 12 95 22 96 22 1 0 5 -17 9 -37 13 -74 93 -229
133 -261 9 -6 32 -12 52 -12 71 0 104 78 60 140 -32 45 -79 151 -86 195 l-6
41 74 43 c264 157 443 396 531 711 19 69 21 106 25 482 2 273 0 413 -7 426 -6
12 -44 33 -93 51 -45 18 -108 48 -140 67 -119 72 -237 204 -293 326 -14 30
-33 62 -43 71 -20 18 -59 27 -85 20z"/>
<path d="M3357 1009 c-59 -61 -110 -122 -113 -136 -10 -38 12 -71 117 -182 88
-92 100 -101 133 -101 49 0 86 36 86 83 0 29 -11 47 -65 105 -36 38 -65 73
-65 78 0 4 29 38 65 75 51 52 65 74 65 97 0 44 -9 61 -41 77 -54 29 -68 22
-182 -96z"/>
<path d="M3843 1105 c-12 -8 -26 -30 -32 -48 -28 -86 -91 -384 -86 -405 9 -36
41 -62 79 -62 65 0 74 17 127 241 26 112 46 214 42 227 -13 52 -85 78 -130 47z"/>
<path d="M4135 1095 c-41 -40 -37 -86 13 -140 21 -22 50 -55 66 -72 l30 -33
-67 -69 c-37 -38 -68 -77 -68 -88 -4 -65 26 -103 82 -103 34 0 45 8 139 107
56 59 106 117 111 130 14 38 -11 80 -118 191 -86 89 -102 102 -131 102 -21 0
-41 -9 -57 -25z"/>
</g>
</svg>
